<?xml version="1.0" encoding="UTF-8"?>
<svg width="24px" height="25px" viewBox="0 0 24 25" version="1.1" xmlns="http://www.w3.org/2000/svg" xmlns:xlink="http://www.w3.org/1999/xlink">
    <title>BinanceCoin-Icon</title>
    <g id="Page-1" stroke="none" stroke-width="1" fill="none" fill-rule="evenodd">
        <g id="7_Crypto-Currency" transform="translate(-202.000000, -965.000000)" fill="#FF8C8C" fill-rule="nonzero">
            <g id="Group-4" transform="translate(100.000000, 100.000000)">
                <g id="Group-14" transform="translate(50.000000, 446.000000)">
                    <g id="Group-6" transform="translate(0.000000, 392.000000)">
                        <g id="Group-11" transform="translate(40.000000, 15.590536)">
                            <g id="BinanceCoin-Icon" transform="translate(12.000000, 12.000000)">
                                <path d="M7.33897827,10.0849516 L12.0000505,5.424 L16.6632449,10.0869726 L19.3752058,7.37502316 L12.0000505,0 L4.62719927,7.3728 L7.33907932,10.0847495 L7.33897827,10.0849516 Z M0,12 L2.71209226,9.28754526 L5.42400263,11.9993937 L2.71190026,14.7115453 L0,12 Z M7.33897827,13.9152505 L12.0000505,18.576 L16.6631438,13.9131284 L19.3765195,16.6236632 L19.3752058,16.6250779 L12.0000505,24 L4.62719927,16.6272 L4.62335926,16.62336 L7.33928143,13.9150484 L7.33897827,13.9152505 Z M18.5759772,12.0011116 L21.2881402,9.28906105 L24,12.0009095 L21.2880391,14.7130611 L18.5759772,12.0011116 Z" id="Shape"></path>
                                <polyline id="Path" points="14.7505126 11.9986863 14.7516242 11.9986863 11.9998484 9.24672 9.96595354 11.2801011 9.73221782 11.5138358 9.25029579 11.9958568 9.24645577 11.9995958 9.25029579 12.0035368 11.9998484 14.7534821 14.7518263 12.0015158 14.75314 12 14.7506137 11.9986863"></polyline>
                            </g>
                        </g>
                    </g>
                </g>
            </g>
        </g>
    </g>
</svg>