<?xml version="1.0" encoding="UTF-8"?>
<svg width="18px" height="25px" viewBox="0 0 18 25" version="1.1" xmlns="http://www.w3.org/2000/svg" xmlns:xlink="http://www.w3.org/1999/xlink">
    <title>Bit-Coin-2</title>
    <g id="Page-1" stroke="none" stroke-width="1" fill="none" fill-rule="evenodd" stroke-linecap="round" stroke-linejoin="round">
        <g id="7_Crypto-Currency" transform="translate(-204.000000, -723.000000)" stroke="#5897E8" stroke-width="2.5">
            <g id="Group-4" transform="translate(100.000000, 100.000000)">
                <g id="Group-14" transform="translate(50.000000, 446.000000)">
                    <g id="Group-6" transform="translate(0.000000, 150.000000)">
                        <g id="Group-11" transform="translate(40.000000, 16.000000)">
                            <g id="Bit-Coin-2" transform="translate(15.426786, 12.951912)">
                                <path d="M3.62346663,2.47487373 L12.6387743,4.89051816 C14.5059057,5.3908145 15.6139444,7.30999384 15.1136481,9.1771252 C14.6133517,11.0442566 12.6941724,12.1522953 10.827041,11.6519989 C12.6941724,12.1522953 13.8022111,14.0714746 13.3019148,15.938606 C12.8016184,17.8057374 10.8824391,18.9137761 9.01530771,18.4134797 L0,15.9978353" id="Path"></path>
                                <line x1="5.87729356" y1="3.07878484" x2="2.25382693" y2="16.6017464" id="Path"></line>
                                <line x1="4.06556024" y1="9.84026562" x2="10.827041" y2="11.6519989" id="Path"></line>
                                <line x1="7.91007368" y1="0" x2="7.00420702" y2="3.38074039" id="Path"></line>
                                <line x1="12.4177275" y1="1.20782221" x2="11.5118609" y2="4.5885626" id="Path"></line>
                                <line x1="3.38074039" y1="16.903702" x2="2.47487373" y2="20.2844424" id="Path"></line>
                                <line x1="7.88839425" y1="18.1115242" x2="6.98252759" y2="21.4922646" id="Path"></line>
                            </g>
                        </g>
                    </g>
                </g>
            </g>
        </g>
    </g>
</svg>