<?xml version="1.0" encoding="UTF-8"?>
<svg width="23px" height="31px" viewBox="0 0 23 31" version="1.1" xmlns="http://www.w3.org/2000/svg" xmlns:xlink="http://www.w3.org/1999/xlink">
    <title>Bitcoin-2</title>
    <g id="Page-1" stroke="none" stroke-width="1" fill="none" fill-rule="evenodd" stroke-linecap="round" stroke-linejoin="round">
        <g id="8_Crypto-Currency-Details" transform="translate(-980.000000, -501.000000)" stroke="#E68D69" stroke-width="2.5">
            <g id="Group-10" transform="translate(150.000000, 201.000000)">
                <g id="Group-18" transform="translate(30.000000, 261.000000)">
                    <g id="Group-15" transform="translate(765.712665, 0.000000)">
                        <g id="Group-14" transform="translate(18.287335, 26.000000)">
                            <g id="Bitcoin-2" transform="translate(17.977296, 14.601201)">
                                <path d="M2.04825947,5.20468436 L14.0482595,5.20468436 C16.5335408,5.20468436 18.5482595,7.21940298 18.5482595,9.70468436 C18.5482595,12.1899657 16.5335408,14.2046844 14.0482595,14.2046844 C16.5335408,14.2046844 18.5482595,16.219403 18.5482595,18.7046844 C18.5482595,21.1899657 16.5335408,23.2046844 14.0482595,23.2046844 L2.04825947,23.2046844" id="Path" transform="translate(10.298259, 14.204684) rotate(15.000000) translate(-10.298259, -14.204684) "></path>
                                <line x1="5.22714888" y1="3.84588437" x2="5.22714888" y2="21.8458844" id="Path" transform="translate(5.227149, 12.845884) rotate(15.000000) translate(-5.227149, -12.845884) "></line>
                                <line x1="5.0738151" y1="14.0105701" x2="14.0738151" y2="14.0105701" id="Path" transform="translate(9.573815, 14.010570) rotate(15.000000) translate(-9.573815, -14.010570) "></line>
                                <line x1="9.58775188" y1="0.117447393" x2="9.58775188" y2="4.61744739" id="Path" transform="translate(9.587752, 2.367447) rotate(15.000000) translate(-9.587752, -2.367447) "></line>
                                <line x1="15.3833068" y1="1.67036166" x2="15.3833068" y2="6.17036166" id="Path" transform="translate(15.383307, 3.920362) rotate(15.000000) translate(-15.383307, -3.920362) "></line>
                                <line x1="3.76432337" y1="21.8507785" x2="3.76432337" y2="26.3507785" id="Path" transform="translate(3.764323, 24.100778) rotate(15.000000) translate(-3.764323, -24.100778) "></line>
                                <line x1="9.55987832" y1="23.4036928" x2="9.55987832" y2="27.9036928" id="Path" transform="translate(9.559878, 25.653693) rotate(15.000000) translate(-9.559878, -25.653693) "></line>
                            </g>
                        </g>
                    </g>
                </g>
            </g>
        </g>
    </g>
</svg>