<svg width="62" height="41" viewBox="0 0 62 41" xmlns="http://www.w3.org/2000/svg">
    <g fill="#4FAC68" fill-rule="nonzero">
        <path d="M55.542 0H6.458C2.898 0 0 2.875 0 6.406v28.188C0 38.124 2.898 41 6.458 41h49.083C59.101 41 62 38.125 62 34.594V6.406C62 2.876 59.1 0 55.542 0zm3.875 34.594c0 2.119-1.739 3.843-3.875 3.843H6.458c-2.136 0-3.875-1.724-3.875-3.843V6.406c0-2.119 1.739-3.843 3.875-3.843h49.083c2.137 0 3.876 1.724 3.876 3.843v28.188z"/>
        <path d="M60.708 7.687H1.292C.579 7.687 0 8.262 0 8.97v7.687c0 .708.579 1.282 1.292 1.282h59.416c.713 0 1.292-.574 1.292-1.282V8.97c0-.707-.579-1.282-1.292-1.282zm-1.291 7.688H2.583V10.25h56.834v5.125zM24.542 25.625h-15.5c-.713 0-1.292.574-1.292 1.281 0 .708.579 1.281 1.292 1.281h15.5c.713 0 1.291-.574 1.291-1.28 0-.708-.578-1.282-1.291-1.282zM24.542 30.75h-15.5c-.713 0-1.292.574-1.292 1.281s.579 1.282 1.292 1.282h15.5c.713 0 1.291-.575 1.291-1.282 0-.707-.578-1.281-1.291-1.281zM50.375 23.062h-2.583c-2.137 0-3.875 1.725-3.875 3.844v2.563c0 2.119 1.738 3.843 3.875 3.843h2.583c2.136 0 3.875-1.724 3.875-3.843v-2.563c0-2.119-1.739-3.844-3.875-3.844zm1.292 6.407c0 .707-.58 1.281-1.292 1.281h-2.583A1.287 1.287 0 0 1 46.5 29.47v-2.563c0-.707.579-1.281 1.292-1.281h2.583c.713 0 1.292.574 1.292 1.281v2.563z"/>
    </g>
</svg>
