<?xml version="1.0" encoding="utf-8"?>
<!-- Generator: Adobe Illustrator 26.2.0, SVG Export Plug-In . SVG Version: 6.00 Build 0)  -->
<svg version="1.1" id="Layer_1" xmlns="http://www.w3.org/2000/svg" xmlns:xlink="http://www.w3.org/1999/xlink" x="0px" y="0px"
	 width="36px" height="36px" viewBox="0 0 36 36" style="enable-background:new 0 0 36 36;" xml:space="preserve">
<style type="text/css">
	.st0{fill:none;}
	.st1{fill:none;stroke:#4FAC68;stroke-width:2.5;stroke-linecap:round;stroke-linejoin:round;}
</style>
<g>
	<path class="st0" d="M-1.4-1.5h39v39h-39C-1.4,37.5-1.4-1.5-1.4-1.5z"/>
	<path class="st1" d="M13.2,13.1h16.2c1.8,0,3.3,1.5,3.3,3.3V26c0,1.8-1.5,3.3-3.3,3.3H13.2c-1.8,0-3.3-1.5-3.3-3.3v-9.7
		C10,14.6,11.4,13.1,13.2,13.1z"/>
	<circle class="st1" cx="21.4" cy="21.3" r="3.2"/>
	<path class="st1" d="M26.1,13.1V9.9c0-1.8-1.5-3.2-3.2-3.2H6.7c-1.8,0-3.2,1.5-3.2,3.2v9.8c0,1.8,1.5,3.2,3.2,3.2h3.2"/>
</g>
</svg>
