<?xml version="1.0" encoding="UTF-8"?>
<svg width="39px" height="40px" viewBox="0 0 39 40" version="1.1" xmlns="http://www.w3.org/2000/svg" xmlns:xlink="http://www.w3.org/1999/xlink">
    <title>debit-card-log-icon</title>
    <g id="Page-1" stroke="none" stroke-width="1" fill="none" fill-rule="evenodd">
        <g id="iBan-Log" transform="translate(-31.000000, -19.462687)">
            <g id="Group" transform="translate(31.000000, 20.000000)">
                <polygon id="Path" points="0 0 39 0 39 39 0 39"></polygon>
                <path d="M16.99923,27.875 L16.99923,27.875 L6.76865673,27.875 C4.06596475,27.875 1.875,25.6840353 1.875,22.9813433 L1.875,10.0186567 C1.875,7.31596475 4.06596475,5.125 6.76865673,5.125 L26.2313433,5.125 C28.9340353,5.125 31.125,7.31596475 31.125,10.0186567 L31.125,13.3048356 L31.125,13.3048356" id="Path" stroke="#BFBFBF" stroke-width="2.5" stroke-linecap="round" stroke-linejoin="round"></path>
                <line x1="1.875" y1="13.25" x2="31.125" y2="13.25" id="Path" stroke="#BFBFBF" stroke-width="2.5" stroke-linecap="round" stroke-linejoin="round"></line>
                <line x1="8.375" y1="21.375" x2="8.39125" y2="21.375" id="Path" stroke="#BFBFBF" stroke-width="2.44682837" stroke-linecap="round" stroke-linejoin="round"></line>
                <line x1="14.875" y1="21.375" x2="18.125" y2="21.375" id="Path" stroke="#BFBFBF" stroke-width="2.5" stroke-linecap="round" stroke-linejoin="round"></line>
                <path d="M25,20.4626866 L37,20.4626866 M37,20.4626866 L33,16.4626866 M37,20.4626866 L33,24.4626866 M33,30.4626866 L21,30.4626866 M21,30.4626866 L25,34.4626866 M21,30.4626866 L25,26.4626866" id="Shape" stroke="#BFBFBF" stroke-width="2.5" stroke-linecap="round" stroke-linejoin="round"></path>
            </g>
        </g>
    </g>
</svg>