<?xml version="1.0" encoding="UTF-8"?>
<svg width="44px" height="44px" viewBox="0 0 44 44" version="1.1" xmlns="http://www.w3.org/2000/svg" xmlns:xlink="http://www.w3.org/1999/xlink">
    <title>IBAN-log-icon</title>
    <g id="Page-1" stroke="none" stroke-width="1" fill="none" fill-rule="evenodd">
        <g id="iBan-Log" transform="translate(-29.000000, -17.462687)">
            <g id="IBAN-log-icon" transform="translate(29.000000, 17.462687)">
                <g id="Group">
                    <polygon id="Path" points="0 0 44 0 44 44 0 44"></polygon>
                    <line x1="3.5" y1="37.5" x2="20.4230163" y2="37.5" id="Path" stroke="#BFBFBF" stroke-width="2.5" stroke-linecap="round" stroke-linejoin="round"></line>
                    <line x1="3.5" y1="17.3333333" x2="36.5" y2="17.3333333" id="Path" stroke="#BFBFBF" stroke-width="2.5" stroke-linecap="round" stroke-linejoin="round"></line>
                    <line x1="13.5" y1="13.3333333" x2="25.5" y2="13.3333333" id="Path" stroke="#BFBFBF" stroke-width="2.5" stroke-linecap="round" stroke-linejoin="round"></line>
                    <polyline id="Path" stroke="#BFBFBF" stroke-width="2.5" stroke-linecap="round" stroke-linejoin="round" points="4.16666667 13 20 4.5 35.8333333 13"></polyline>
                    <line x1="5.33333333" y1="17.3333333" x2="5.33333333" y2="37.5" id="Path" stroke="#BFBFBF" stroke-width="2.5" stroke-linecap="round" stroke-linejoin="round"></line>
                    <line x1="34.6666667" y1="17.3333333" x2="34.6666667" y2="20.4924144" id="Path" stroke="#BFBFBF" stroke-width="2.5" stroke-linecap="round" stroke-linejoin="round"></line>
                    <line x1="12.6666667" y1="24.6666667" x2="12.6666667" y2="30.1666667" id="Path" stroke="#BFBFBF" stroke-width="2.5" stroke-linecap="round" stroke-linejoin="round"></line>
                    <line x1="20" y1="24.6666667" x2="20" y2="30.1666667" id="Path" stroke="#BFBFBF" stroke-width="2.5" stroke-linecap="round" stroke-linejoin="round"></line>
                </g>
                <path d="M30,26 L42,26 M42,26 L38,22 M42,26 L38,30 M38,36 L26,36 M26,36 L30,40 M26,36 L30,32" id="Shape" stroke="#BFBFBF" stroke-width="2.5" stroke-linecap="round" stroke-linejoin="round"></path>
            </g>
        </g>
    </g>
</svg>