<svg xmlns="http://www.w3.org/2000/svg" width="22.379" height="23.604" viewBox="0 0 22.379 23.604">
  <g id="ripplecoin_icon" transform="translate(0 0)">
    <path id="Path" d="M14.794.635a4.962,4.962,0,0,0-2.531,4.291,5.509,5.509,0,0,0,.844,2.648,1.833,1.833,0,0,1-.75,2.649,2.032,2.032,0,0,1-2.715-.732A8.349,8.349,0,0,0,7.583,7.483a5.015,5.015,0,0,0-5.055,0,4.912,4.912,0,0,0,0,8.59,5.016,5.016,0,0,0,5.055,0,5.09,5.09,0,0,0,1.965-2.009,1.951,1.951,0,0,1,2.715-.732,2.018,2.018,0,0,1,.75,2.649,5.4,5.4,0,0,0-.75,2.648,4.945,4.945,0,0,0,2.531,4.291,5.015,5.015,0,0,0,5.055,0,4.906,4.906,0,0,0,0-8.585,5.767,5.767,0,0,0-2.809-.64,1.917,1.917,0,1,1,0-3.833,6.021,6.021,0,0,0,2.809-.64,4.962,4.962,0,0,0,2.531-4.291A4.972,4.972,0,0,0,17.32,0a4.928,4.928,0,0,0-2.526.635" fill="#fff"/>
  </g>
</svg>
