<?xml version="1.0" encoding="UTF-8"?>
<svg width="24px" height="24px" viewBox="0 0 24 24" version="1.1" xmlns="http://www.w3.org/2000/svg" xmlns:xlink="http://www.w3.org/1999/xlink">
    <title>Tether</title>
    <g id="Page-1" stroke="none" stroke-width="1" fill="none" fill-rule="evenodd">
        <g id="7_Crypto-Currency" transform="translate(-543.000000, -450.000000)" fill="#FFFFFF" fill-rule="nonzero">
            <g id="Group-4" transform="translate(100.000000, 100.000000)">
                <g id="Group-16" transform="translate(50.000000, 252.699627)">
                    <g id="Group-4" transform="translate(357.000000, 60.000000)">
                        <g id="Group-7" transform="translate(20.000000, 20.890909)">
                            <g id="Tether" transform="translate(16.000000, 17.000000)">
                                <rect id="Rectangle" x="3" y="0" width="18" height="5"></rect>
                                <path d="M12,8 C7.543,8 0,8.737 0,11.5 C0,14.263 7.543,15 12,15 C16.457,15 24,14.263 24,11.5 C24,8.737 16.457,8 12,8 Z M12,13 C6.477,13 2,12.105 2,11 C2,9.895 6.477,9 12,9 C17.523,9 22,9.895 22,11 C22,12.105 17.523,13 12,13 Z" id="Shape"></path>
                                <path d="M12,11 C13.095,11 14.093,10.963 15,10.902 L15,0 L9,0 L9,10.902 C9.907,10.963 10.905,11 12,11 Z" id="Path"></path>
                                <path d="M13.723,12.968 C13.612,12.972 13.5,12.975 13.387,12.978 C12.932,12.991 12.472,13 12,13 C11.528,13 11.068,12.991 10.613,12.979 C10.5,12.976 10.388,12.973 10.277,12.969 C9.842,12.954 9.414,12.935 9,12.909 L9,23 L15,23 L15,12.908 C14.586,12.934 14.158,12.953 13.723,12.968 Z" id="Path"></path>
                            </g>
                        </g>
                    </g>
                </g>
            </g>
        </g>
    </g>
</svg>