<?xml version="1.0" encoding="UTF-8"?>
<svg width="21px" height="21px" viewBox="0 0 21 21" version="1.1" xmlns="http://www.w3.org/2000/svg" xmlns:xlink="http://www.w3.org/1999/xlink">
    <title>Tether-2</title>
    <g id="Page-1" stroke="none" stroke-width="1" fill="none" fill-rule="evenodd">
        <g id="7_Crypto-Currency" transform="translate(-203.000000, -806.000000)" fill="#26A69A" fill-rule="nonzero">
            <g id="Group-4" transform="translate(100.000000, 100.000000)">
                <g id="Group-14" transform="translate(50.000000, 446.000000)">
                    <g id="Group-6" transform="translate(0.000000, 231.000000)">
                        <g id="Group-11" transform="translate(40.000000, 15.590536)">
                            <g id="Tether-2" transform="translate(13.000000, 14.000000)">
                                <rect id="Rectangle" x="2.625" y="0" width="15.75" height="4.34782609"></rect>
                                <path d="M10.5,6.95652174 C6.600125,6.95652174 0,7.5973913 0,10 C0,12.4026087 6.600125,13.0434783 10.5,13.0434783 C14.399875,13.0434783 21,12.4026087 21,10 C21,7.5973913 14.399875,6.95652174 10.5,6.95652174 Z M10.5,11.3043478 C5.667375,11.3043478 1.75,10.526087 1.75,9.56521739 C1.75,8.60434783 5.667375,7.82608696 10.5,7.82608696 C15.332625,7.82608696 19.25,8.60434783 19.25,9.56521739 C19.25,10.526087 15.332625,11.3043478 10.5,11.3043478 Z" id="Shape"></path>
                                <path d="M10.5,9.56521739 C11.458125,9.56521739 12.331375,9.53304348 13.125,9.48 L13.125,0 L7.875,0 L7.875,9.48 C8.668625,9.53304348 9.541875,9.56521739 10.5,9.56521739 Z" id="Path"></path>
                                <path d="M12.007625,11.2765217 C11.9105,11.28 11.8125,11.2826087 11.713625,11.2852174 C11.3155,11.2965217 10.913,11.3043478 10.5,11.3043478 C10.087,11.3043478 9.6845,11.2965217 9.286375,11.286087 C9.1875,11.2834783 9.0895,11.2808696 8.992375,11.2773913 C8.61175,11.2643478 8.23725,11.2478261 7.875,11.2252174 L7.875,20 L13.125,20 L13.125,11.2243478 C12.76275,11.2469565 12.38825,11.2634783 12.007625,11.2765217 Z" id="Path"></path>
                            </g>
                        </g>
                    </g>
                </g>
            </g>
        </g>
    </g>
</svg>