<svg width="62" height="62" viewBox="0 0 62 62" xmlns="http://www.w3.org/2000/svg">
    <g fill="#4FAC68" fill-rule="nonzero">
        <path d="M3.224 55.526c-.685 0-1.24.557-1.24 1.245 0 .688.555 1.245 1.24 1.245h23.808c.685 0 1.24-.557 1.24-1.245 0-.688-.555-1.245-1.24-1.245h-.744V43.948h.744c.685 0 1.24-.558 1.24-1.245v-1.868c0-.416-.207-.805-.552-1.036l-11.904-7.967a1.236 1.236 0 0 0-1.376 0L2.536 39.799c-.345.231-.552.62-.552 1.036v1.868c0 .687.555 1.245 1.24 1.245h.744v11.578h-.744zm7.192-11.454h9.424v11.454h-9.424V44.072zM22.32 55.526V44.072h1.488v11.454H22.32zm-7.192-21.162 10.599 7.094H4.529l10.599-7.094zm-8.68 9.708h1.488v11.454H6.448V44.072zM29.016 59.51H1.24c-.685 0-1.24.557-1.24 1.245C0 61.443.555 62 1.24 62h27.776c.685 0 1.24-.557 1.24-1.245 0-.688-.555-1.245-1.24-1.245zM34.968 23.904c-.685 0-1.24.557-1.24 1.245 0 .687.555 1.245 1.24 1.245h23.808c.685 0 1.24-.558 1.24-1.245 0-.688-.555-1.245-1.24-1.245h-.744V12.325h.744c.685 0 1.24-.557 1.24-1.245V9.213c0-.416-.207-.805-.552-1.036L47.56.209a1.236 1.236 0 0 0-1.376 0L34.28 8.177c-.345.23-.552.62-.552 1.036v1.867c0 .688.555 1.245 1.24 1.245h.744v11.579h-.744zM42.16 12.45h9.424v11.454H42.16V12.45zm11.904 11.454V12.45h1.488v11.454h-1.488zM46.872 2.74l10.599 7.094H36.273l10.599-7.094zm-8.68 9.709h1.488v11.454h-1.488V12.45zM60.76 27.888H32.984c-.685 0-1.24.557-1.24 1.244 0 .688.555 1.245 1.24 1.245H60.76c.685 0 1.24-.557 1.24-1.245 0-.687-.555-1.244-1.24-1.244zM52.468 35.009a1.24 1.24 0 0 0-1.505.904C49.15 43.235 43.49 48.975 36.216 50.87l1.518-2.85a1.247 1.247 0 0 0-.51-1.681 1.237 1.237 0 0 0-1.677.506l-2.807 5.269a1.25 1.25 0 0 0 .531 1.697l5.307 2.709c.395.202.867.176 1.239-.066a1.247 1.247 0 0 0-.115-2.154l-2.306-1.177c7.89-2.283 13.974-8.608 15.972-16.604a1.25 1.25 0 0 0-.9-1.511zM9.532 26.742a1.234 1.234 0 0 0 1.505-.904c1.814-7.322 7.473-13.062 14.747-14.958l-1.518 2.85a1.25 1.25 0 0 0 .037 1.248 1.239 1.239 0 0 0 2.15-.073l2.807-5.269a1.25 1.25 0 0 0-.531-1.697L23.422 5.23a1.236 1.236 0 0 0-1.239.066 1.247 1.247 0 0 0 .115 2.154l2.306 1.177C16.714 10.91 10.63 17.235 8.632 25.23a1.25 1.25 0 0 0 .9 1.511z"/>
    </g>
</svg>
