<svg width="18" height="18" viewBox="0 0 18 18" xmlns="http://www.w3.org/2000/svg">
    <g fill="none" fill-rule="evenodd">
        <path d="M-3-3h24v24H-3z"/>
        <path d="M14 5V2a1 1 0 0 0-1-1H3a2 2 0 1 0 0 4h12a1 1 0 0 1 1 1v3m0 4v3a1 1 0 0 1-1 1H3a2 2 0 0 1-2-2V3" stroke="#484845" stroke-width="1.5" stroke-linecap="round" stroke-linejoin="round"/>
        <path d="M17 9v4h-4a2 2 0 1 1 0-4h4" stroke="#484845" stroke-width="1.5" stroke-linecap="round" stroke-linejoin="round"/>
    </g>
</svg>
