<?xml version="1.0" encoding="UTF-8"?>
<svg width="83px" height="83px" viewBox="0 0 83 83" version="1.1" xmlns="http://www.w3.org/2000/svg" xmlns:xlink="http://www.w3.org/1999/xlink">
    <title>Wire-Transfer</title>
    <g id="Page-1" stroke="none" stroke-width="1" fill="none" fill-rule="evenodd">
        <g id="4_Wire-Transfer-Popup" transform="translate(-919.000000, -296.000000)" fill="#4FAC68" fill-rule="nonzero">
            <g id="Group-16" transform="translate(715.000000, 229.000000)">
                <g id="Group-18" transform="translate(36.000000, 67.000000)">
                    <g id="Wire-Transfer" transform="translate(168.000000, 0.000000)">
                        <path d="M4.316,74.3333246 C3.39920732,74.3333246 2.656,75.0795174 2.656,75.9999929 C2.656,76.9204684 3.39920732,77.6666613 4.316,77.6666613 L36.188,77.6666613 C37.1047927,77.6666613 37.848,76.9204684 37.848,75.9999929 C37.848,75.0795174 37.1047927,74.3333246 36.188,74.3333246 L35.192,74.3333246 L35.192,58.8333089 L36.188,58.8333089 C37.1047927,58.8333089 37.848,58.087116 37.848,57.1666405 L37.848,54.666638 C37.848,54.1094117 37.5705873,53.5890633 37.108802,53.2799699 L21.172802,42.6132924 C20.6152091,42.2400708 19.8887909,42.2400708 19.331198,42.6132924 L3.395198,53.2799699 C2.9334127,53.5890633 2.656,54.1094117 2.656,54.666638 L2.656,57.1666405 C2.656,58.087116 3.39920732,58.8333089 4.316,58.8333089 L5.312,58.8333089 L5.312,74.3333246 L4.316,74.3333246 Z M13.944,58.9999757 L26.56,58.9999757 L26.56,74.3333246 L13.944,74.3333246 L13.944,58.9999757 Z M29.88,74.3333246 L29.88,58.9999757 L31.872,58.9999757 L31.872,74.3333246 L29.88,74.3333246 Z M20.252,46.0031292 L34.440352,55.4999722 L6.063648,55.4999722 L20.252,46.0031292 Z M8.632,58.9999757 L10.624,58.9999757 L10.624,74.3333246 L8.632,74.3333246 L8.632,58.9999757 Z" id="Shape"></path>
                        <path d="M38.844,79.6666633 L1.66,79.6666633 C0.743207315,79.6666633 0,80.4128561 0,81.3333316 C0,82.2538072 0.743207315,83 1.66,83 L38.844,83 C39.7607927,83 40.504,82.2538072 40.504,81.3333316 C40.504,80.4128561 39.7607927,79.6666633 38.844,79.6666633 Z" id="Path"></path>
                        <path d="M46.812,31.9999484 C45.8952073,31.9999484 45.152,32.7461412 45.152,33.6666167 C45.152,34.5870922 45.8952073,35.3332851 46.812,35.3332851 L78.684,35.3332851 C79.6007927,35.3332851 80.344,34.5870922 80.344,33.6666167 C80.344,32.7461412 79.6007927,31.9999484 78.684,31.9999484 L77.688,31.9999484 L77.688,16.4999327 L78.684,16.4999327 C79.6007927,16.4999327 80.344,15.7537398 80.344,14.8332643 L80.344,12.3332618 C80.344,11.7760355 80.0665873,11.2556871 79.604802,10.9465937 L63.668802,0.279916242 C63.1112091,-0.0933054138 62.3847909,-0.0933054138 61.827198,0.279916242 L45.891198,10.9465937 C45.4294127,11.2556871 45.152,11.7760355 45.152,12.3332618 L45.152,14.8332643 C45.152,15.7537398 45.8952073,16.4999327 46.812,16.4999327 L47.808,16.4999327 L47.808,31.9999484 L46.812,31.9999484 Z M56.44,16.6665995 L69.056,16.6665995 L69.056,31.9999484 L56.44,31.9999484 L56.44,16.6665995 Z M72.376,31.9999484 L72.376,16.6665995 L74.368,16.6665995 L74.368,31.9999484 L72.376,31.9999484 Z M62.748,3.66975301 L76.936518,13.166596 L48.559482,13.166596 L62.748,3.66975301 Z M51.128,16.6665995 L53.12,16.6665995 L53.12,31.9999484 L51.128,31.9999484 L51.128,16.6665995 Z" id="Shape"></path>
                        <path d="M81.34,37.3332871 L44.156,37.3332871 C43.2392073,37.3332871 42.496,38.0794799 42.496,38.9999554 C42.496,39.920431 43.2392073,40.6666238 44.156,40.6666238 L81.34,40.6666238 C82.2567927,40.6666238 83,39.920431 83,38.9999554 C83,38.0794799 82.2567927,37.3332871 81.34,37.3332871 L81.34,37.3332871 Z" id="Path"></path>
                        <path d="M70.239414,46.8666301 C69.350312,46.6422426 68.4483718,47.1839689 68.224838,48.0766313 C65.795779,57.8794204 58.2205014,65.5628278 48.482126,68.1011516 L50.515128,64.2854811 C50.9431255,63.4744154 50.637414,62.4685665 49.8313145,62.0356041 C49.025215,61.6026417 48.0221738,61.9055494 47.587718,62.7131461 L43.829146,69.7666533 C43.618641,70.1617176 43.5754279,70.6252391 43.709254,71.0526631 C43.8430802,71.4800871 44.1426735,71.8354121 44.540456,72.0384889 L51.645256,75.6651592 C52.1739105,75.9350439 52.805813,75.9012608 53.3029321,75.5765358 C53.8000511,75.2518108 54.0868625,74.6854773 54.0553271,74.0908677 C54.0237917,73.496258 53.6787005,72.9637076 53.150046,72.6938229 L50.062446,71.1176546 C60.6247204,68.061615 68.769912,59.5943222 71.44474,48.8897988 C71.5522083,48.4610271 71.4855827,48.0069521 71.2595268,47.6275118 C71.0334709,47.2480716 70.6665117,46.9743641 70.239414,46.8666301 L70.239414,46.8666301 Z" id="Path"></path>
                        <path d="M12.760752,35.7999522 C13.187729,35.9083977 13.6401387,35.8417501 14.0180899,35.6147251 C14.3960411,35.3877001 14.6684474,35.0189705 14.775162,34.589951 C17.2042864,24.7871988 24.779536,17.1038198 34.517874,14.5654307 L32.484872,18.3811012 C32.2022775,18.9064076 32.2211285,19.5433534 32.5342909,20.0508858 C32.8474532,20.5584182 33.4070845,20.8590006 34.0013916,20.8388772 C34.5956988,20.8187537 35.1338884,20.4809988 35.412282,19.9534362 L39.170854,12.899929 C39.381359,12.5048647 39.4245721,12.0413432 39.290746,11.6139192 C39.1569198,11.1864951 38.8573265,10.8311702 38.459544,10.6280934 L31.354744,7.00142305 C30.8260895,6.73153838 30.194187,6.76532142 29.6970679,7.09004642 C29.1999488,7.41477143 28.9131375,7.98110495 28.9446729,8.57571461 C28.9762083,9.17032428 29.3212995,9.70287474 29.849954,9.97275939 L32.937554,11.5489277 C22.3752891,14.6049272 14.2301317,23.0722502 11.555426,33.7767835 C11.4479577,34.2055552 11.5145833,34.6596302 11.7406392,35.0390705 C11.9666951,35.4185107 12.3336543,35.6922182 12.760752,35.7999522 Z" id="Path"></path>
                    </g>
                </g>
            </g>
        </g>
    </g>
</svg>