<svg xmlns="http://www.w3.org/2000/svg" width="33.595" height="33.595" viewBox="0 0 33.595 33.595">
  <g id="crypto" transform="matrix(0.985, 0.174, -0.174, 0.985, 5.036, 0)">
    <path id="Path" d="M0,0H29V29H0Z" fill="none"/>
    <path id="Path-2" data-name="Path" d="M0,0H9.667a3.625,3.625,0,1,1,0,7.25,3.625,3.625,0,1,1,0,7.25H0" transform="translate(7.25 7.25)" fill="none" stroke="#fff" stroke-linecap="round" stroke-linejoin="round" stroke-miterlimit="10" stroke-width="2"/>
    <path id="Path-3" data-name="Path" d="M.6,0V14.5" transform="translate(9.063 7.25)" fill="none" stroke="#fff" stroke-linecap="round" stroke-linejoin="round" stroke-miterlimit="10" stroke-width="2"/>
    <path id="Path-4" data-name="Path" d="M0,.6H7.25" transform="translate(9.667 13.896)" fill="none" stroke="#fff" stroke-linecap="round" stroke-linejoin="round" stroke-miterlimit="10" stroke-width="2"/>
    <path id="Path-5" data-name="Path" d="M.6,0V3.625" transform="translate(10.271 3.625)" fill="none" stroke="#fff" stroke-linecap="round" stroke-linejoin="round" stroke-miterlimit="10" stroke-width="2"/>
    <path id="Path-6" data-name="Path" d="M.6,0V3.625" transform="translate(15.104 3.625)" fill="none" stroke="#fff" stroke-linecap="round" stroke-linejoin="round" stroke-miterlimit="10" stroke-width="2"/>
    <path id="Path-7" data-name="Path" d="M.6,0V3.625" transform="translate(10.271 21.75)" fill="none" stroke="#fff" stroke-linecap="round" stroke-linejoin="round" stroke-miterlimit="10" stroke-width="2"/>
    <path id="Path-8" data-name="Path" d="M.6,0V3.625" transform="translate(15.104 21.75)" fill="none" stroke="#fff" stroke-linecap="round" stroke-linejoin="round" stroke-miterlimit="10" stroke-width="2"/>
  </g>
</svg>
