<?xml version="1.0" encoding="utf-8"?>
<!-- Generator: Adobe Illustrator 26.2.0, SVG Export Plug-In . SVG Version: 6.00 Build 0)  -->
<svg version="1.1" id="Layer_1" xmlns="http://www.w3.org/2000/svg" xmlns:xlink="http://www.w3.org/1999/xlink" x="0px" y="0px"
	 width="36px" height="36px" viewBox="0 0 36 36" style="enable-background:new 0 0 36 36;" xml:space="preserve">
<style type="text/css">
	.st0{fill:none;}
	.st1{fill:none;stroke:#4FAC68;stroke-width:2.5;stroke-linecap:round;stroke-linejoin:round;}
</style>
<g transform="translate(-5 -4.269)">
	<path class="st0" d="M4,3.5h38v38H4V3.5z"/>
	<path class="st1" d="M11.9,9.8h6.4c0.9,0,1.6,0.7,1.6,1.6v6.4c0,0.9-0.7,1.6-1.6,1.6h-6.4c-0.9,0-1.6-0.7-1.6-1.6v-6.4
		C10.3,10.5,11,9.8,11.9,9.8z"/>
	<path class="st1" d="M11.9,25.7h6.4c0.9,0,1.6,0.7,1.6,1.6v6.4c0,0.9-0.7,1.6-1.6,1.6h-6.4c-0.9,0-1.6-0.7-1.6-1.6v-6.4
		C10.3,26.4,11,25.7,11.9,25.7z"/>
	<path class="st1" d="M27.7,25.7h6.4c0.9,0,1.6,0.7,1.6,1.6v6.4c0,0.9-0.7,1.6-1.6,1.6h-6.4c-0.9,0-1.6-0.7-1.6-1.6v-6.4
		C26.2,26.4,26.9,25.7,27.7,25.7z"/>
	<path class="st1" d="M27.7,9.8h6.4c0.9,0,1.6,0.7,1.6,1.6v6.4c0,0.9-0.7,1.6-1.6,1.6h-6.4c-0.9,0-1.6-0.7-1.6-1.6v-6.4
		C26.2,10.5,26.9,9.8,27.7,9.8z"/>
</g>
</svg>
