<svg width="36" height="46" viewBox="0 0 36 46" xmlns="http://www.w3.org/2000/svg">
    <g stroke="#4FAC68" stroke-width="2" fill="none" fill-rule="evenodd" stroke-linecap="round" stroke-linejoin="round">
        <path d="M22.25 12.733S35 23 35 37.667C35 41.717 31.829 45 27.917 45H8.083C4.171 45 1 41.717 1 37.667 1 23 13.75 12.733 13.75 12.733s-8.5-7.626-8.5-10.266c0-2.64 5.667 1.466 8.5 1.466C17.788 3.933 18.212 1 20.833 1c2.621 0 2.905 3.007 7.084 3.007 1.558 0-1.417 4.4-5.667 8.726z"/>
        <path d="M13.75 12.733h9.208c3.313.219 6.588-.825 9.209-2.933m-1.417 5.867c1.983 0 3.542.733 4.25 2.2M11.767 37.667H23.1m-10.767-7.334h9.917m1.417-5.866c0-2.43-1.903-4.4-4.25-4.4-2.348 0-4.25 1.97-4.25 4.4v9.68c0 1.76-.567 3.52-3.4 3.52"/>
    </g>
</svg>
