<svg width="52" height="37" viewBox="0 0 52 37" xmlns="http://www.w3.org/2000/svg">
    <g fill="none" fill-rule="evenodd">
        <path d="M19.604 18.185H7.222c-.57 0-1.031.46-1.031 1.026a1.03 1.03 0 0 0 1.031 1.027h12.382c.57 0 1.031-.46 1.031-1.027a1.03 1.03 0 0 0-1.031-1.026zM19.742 24.028H7.362c-.57 0-1.033.46-1.033 1.026a1.03 1.03 0 0 0 1.032 1.027h12.381c.57 0 1.032-.46 1.032-1.027a1.03 1.03 0 0 0-1.032-1.026z" fill="#4FAC68" fill-rule="nonzero"/>
        <path stroke="#4FAC68" stroke-width="2" d="M0 10.461h47.461"/>
        <path d="M47.796 33.545A9.552 9.552 0 0 0 51 26.402c0-5.3-4.32-9.598-9.649-9.598a9.71 9.71 0 0 0-2.51.328m-4.265 2.436a9.544 9.544 0 0 0-2.873 6.834c0 5.3 4.32 9.598 9.648 9.598.459 0 .91-.032 1.352-.093" stroke="#4FAC68" stroke-width="2" stroke-linecap="round"/>
        <path stroke="#4FAC68" stroke-width="2" stroke-linecap="round" stroke-linejoin="round" d="M30.954 19.538h3.873l1.026 3.392M51 34.45l-3.362-.55-1.025-3.393"/>
        <path d="M33.74 32.22H6.517a5.514 5.514 0 0 1-5.513-5.513V6.514A5.514 5.514 0 0 1 6.517 1h36.279a5.514 5.514 0 0 1 5.513 5.514v13.405" stroke="#4FAC68" stroke-width="2"/>
    </g>
</svg>
