<?xml version="1.0" encoding="UTF-8"?>
<svg width="30px" height="30px" viewBox="0 0 30 30" version="1.1" xmlns="http://www.w3.org/2000/svg" xmlns:xlink="http://www.w3.org/1999/xlink">
    <title>dogecoin-blue</title>
    <g id="Page-1" stroke="none" stroke-width="1" fill="none" fill-rule="evenodd">
        <g id="14_Crypto-Currency-Details" transform="translate(-219.000000, -503.000000)" fill="#5897E8" fill-rule="nonzero">
            <g id="Group-10" transform="translate(150.000000, 201.000000)">
                <g id="Group-18" transform="translate(30.000000, 261.000000)">
                    <g id="Group-14" transform="translate(24.000000, 26.000000)">
                        <g id="dogecoin-blue" transform="translate(15.000000, 15.000000)">
                            <path d="M15.36,9.885 L13.2168,9.885 L13.2168,14.11035 L16.58865,14.11035 L16.58865,15.87945 L13.2168,15.87945 L13.2168,20.1045425 L15.465,20.1045425 C16.04265,20.1045425 20.2074,20.16975 20.2009575,15.1887 C20.1945,10.20765 16.1616,9.885 15.36,9.885 Z" id="Path"></path>
                            <path d="M15,0 C6.71565,0 0,6.71565 0,15 C0,23.28435 6.71565,30 15,30 C23.28435,30 30,23.28435 30,15 C30,6.71565 23.28435,0 15,0 Z M15.58935,23.1015 L10.1571,23.1015 L10.1571,15.8796 L8.2422,15.8796 L8.2422,14.1105 L10.15695,14.1105 L10.15695,6.88815 L14.81925,6.88815 C15.9222,6.88815 23.22765,6.6591 23.22765,15.13035 C23.22765,23.7417 15.5895,23.1015 15.5895,23.1015 L15.58935,23.1015 Z" id="Shape"></path>
                        </g>
                    </g>
                </g>
            </g>
        </g>
    </g>
</svg>