<svg xmlns="http://www.w3.org/2000/svg" width="27" height="27" viewBox="0 0 27 27">
  <g id="files_green" transform="translate(4 2)">
    <path id="Path_15" data-name="Path 15" d="M-4-2H23V25H-4Z" fill="none" fill-rule="evenodd"/>
    <path id="Path_16" data-name="Path 16" d="M12.875,1.375v4.5A1.125,1.125,0,0,0,14,7h4.5" fill="none" stroke="#4fac68" stroke-linecap="round" stroke-linejoin="round" stroke-width="1.5" fill-rule="evenodd"/>
    <path id="Path_17" data-name="Path 17" d="M16.25,17.125H8.375a2.25,2.25,0,0,1-2.25-2.25V3.625a2.25,2.25,0,0,1,2.25-2.25h4.5L18.5,7v7.875A2.25,2.25,0,0,1,16.25,17.125Z" fill="none" stroke="#4fac68" stroke-linecap="round" stroke-linejoin="round" stroke-width="1.5" fill-rule="evenodd"/>
    <path id="Path_18" data-name="Path 18" d="M14,17.125v2.25a2.25,2.25,0,0,1-2.25,2.25H3.875a2.25,2.25,0,0,1-2.25-2.25V8.125a2.25,2.25,0,0,1,2.25-2.25h2.25" fill="none" stroke="#4fac68" stroke-linecap="round" stroke-linejoin="round" stroke-width="1.5" fill-rule="evenodd"/>
  </g>
</svg>
