<?xml version="1.0" encoding="UTF-8"?>
<svg width="189px" height="28px" viewBox="0 0 189 28" version="1.1" xmlns="http://www.w3.org/2000/svg" xmlns:xlink="http://www.w3.org/1999/xlink">
    <title>Logo</title>
    <g id="Page-1" stroke="none" stroke-width="1" fill="none" fill-rule="evenodd">
        <g id="1_Dashboard" transform="translate(-866.000000, -36.000000)">
            <g id="Logo" transform="translate(866.000000, 36.000000)">
                <path d="M52.5980956,26.6666667 L52.5980956,16.4 C52.5980956,14.7555556 53.0225476,13.4944444 53.8714517,12.6166667 C54.7203557,11.7388889 55.8692059,11.3 57.3180022,11.3 C58.7667984,11.3 59.9099892,11.7388889 60.7475746,12.6166667 C61.5851599,13.4944444 62.0039526,14.7555556 62.0039526,16.4 L62.0039526,16.4 L62.0039526,26.6666667 L65.8409989,26.6666667 L65.8409989,15.8333333 C65.8409989,13.3666667 65.1562163,11.4444444 63.7866511,10.0666667 C62.4170859,8.68888889 60.6796622,8 58.5743802,8 C55.8352497,8 53.8431549,9.06666667 52.5980956,11.2 L52.5980956,11.2 L52.5980956,2 L48.7270931,2 L48.7270931,26.6666667 L52.5980956,26.6666667 Z M78.3029105,26.9666667 C79.7743442,26.9666667 81.0646784,26.6277778 82.173913,25.95 C83.2831477,25.2722222 84.1546892,24.3666667 84.7885375,23.2333333 L84.7885375,23.2333333 L84.7885375,26.6666667 L88.6934962,26.6666667 L88.6934962,8.3 L84.7885375,8.3 L84.7885375,11.5666667 C84.1773266,10.5 83.3114445,9.63888889 82.1908911,8.98333333 C81.0703378,8.32777778 79.7743442,8 78.3029105,8 C75.7901545,8 73.6905318,8.87222222 72.0040424,10.6166667 C70.317553,12.3611111 69.4743083,14.6277778 69.4743083,17.4166667 C69.4743083,20.2055556 70.3232124,22.4944444 72.0210205,24.2833333 C73.7188286,26.0722222 75.812792,26.9666667 78.3029105,26.9666667 Z M79.1178584,23.6666667 C77.5785124,23.6666667 76.2485627,23.0944444 75.1280093,21.95 C74.007456,20.8055556 73.4471793,19.2888889 73.4471793,17.4 C73.4471793,15.5111111 74.007456,14.0222222 75.1280093,12.9333333 C76.2485627,11.8444444 77.5785124,11.3 79.1178584,11.3 C80.6572045,11.3 81.9871542,11.8555556 83.1077075,12.9666667 C84.2282609,14.0777778 84.7885375,15.5777778 84.7885375,17.4666667 C84.7885375,19.3555556 84.2226015,20.8666667 83.0907294,22 C81.9814948,23.1111111 80.6572045,23.6666667 79.1178584,23.6666667 Z M100.34046,26.9666667 C102.491017,26.9666667 104.251078,26.4666667 105.620643,25.4666667 C106.990208,24.4666667 107.674991,23.1666667 107.674991,21.5666667 C107.674991,20.2777778 107.301473,19.25 106.554438,18.4833333 C105.807402,17.7166667 104.896245,17.1888889 103.820967,16.9 C102.745688,16.6111111 101.67041,16.3666667 100.595131,16.1666667 C99.5198527,15.9666667 98.6086957,15.6555556 97.8616601,15.2333333 C97.1146245,14.8111111 96.7411067,14.2277778 96.7411067,13.4833333 C96.7411067,12.7388889 97.0353935,12.1388889 97.6239669,11.6833333 C98.2125404,11.2277778 99.0274883,11 100.068811,11 C101.110133,11 101.919421,11.2555556 102.496676,11.7666667 C103.073931,12.2777778 103.396515,12.9888889 103.464427,13.9 L103.464427,13.9 L107.437298,13.9 C107.346748,12.0777778 106.661966,10.6388889 105.38295,9.58333333 C104.103935,8.52777778 102.37783,8 100.204635,8 C98.0314409,8 96.2770392,8.53888889 94.9414301,9.61666667 C93.6058211,10.6944444 92.9380165,12.0111111 92.9380165,13.5666667 C92.9380165,14.7888889 93.3115343,15.7666667 94.0585699,16.5 C94.8056055,17.2333333 95.7167625,17.7388889 96.792041,18.0166667 C97.8673194,18.2944444 98.9425979,18.5388889 100.017876,18.75 C101.093155,18.9611111 102.004312,19.2777778 102.751347,19.7 C103.498383,20.1222222 103.871901,20.7111111 103.871901,21.4666667 C103.871901,22.2222222 103.560636,22.8277778 102.938106,23.2833333 C102.315577,23.7388889 101.477991,23.9666667 100.42535,23.9666667 C99.3727093,23.9666667 98.5407833,23.7111111 97.9295724,23.2 C97.3183615,22.6888889 96.9787999,21.9777778 96.9108875,21.0666667 L96.9108875,21.0666667 L92.9040604,21.0666667 C93.039885,22.9555556 93.7756019,24.4111111 95.1112109,25.4333333 C96.44682,26.4555556 98.189903,26.9666667 100.34046,26.9666667 Z M115.790514,26.6666667 L115.790514,16.4 C115.790514,14.7555556 116.214966,13.4944444 117.06387,12.6166667 C117.912774,11.7388889 119.061624,11.3 120.51042,11.3 C121.959217,11.3 123.102407,11.7388889 123.939993,12.6166667 C124.777578,13.4944444 125.196371,14.7555556 125.196371,16.4 L125.196371,16.4 L125.196371,26.6666667 L129.033417,26.6666667 L129.033417,15.8333333 C129.033417,13.3666667 128.348635,11.4444444 126.979069,10.0666667 C125.609504,8.68888889 123.87208,8 121.766798,8 C119.027668,8 117.035573,9.06666667 115.790514,11.2 L115.790514,11.2 L115.790514,2 L111.919511,2 L111.919511,26.6666667 L115.790514,26.6666667 Z M138.337406,26.6666667 L138.337406,11.4 L141.800934,11.4 L141.800934,8.3 L138.337406,8.3 L138.337406,7 C138.337406,5.93333333 138.575099,5.18333333 139.050485,4.75 C139.525871,4.31666667 140.352138,4.1 141.529285,4.1 L141.529285,4.1 L141.529285,0.933333333 C139.084441,0.933333333 137.290424,1.41666667 136.147233,2.38333333 C135.004042,3.35 134.432447,4.88888889 134.432447,7 L134.432447,7 L134.432447,8.3 L132.225296,8.3 L132.225296,11.4 L134.432447,11.4 L134.432447,26.6666667 L138.337406,26.6666667 Z M153.346029,26.9666667 C156.08516,26.9666667 158.38852,26.0888889 160.256109,24.3333333 C162.123697,22.5777778 163.057492,20.2888889 163.057492,17.4666667 C163.057492,14.6444444 162.146335,12.3611111 160.324021,10.6166667 C158.501707,8.87222222 156.232303,8 153.51581,8 C150.799317,8 148.529914,8.87222222 146.7076,10.6166667 C144.885286,12.3611111 143.974129,14.65 143.974129,17.4833333 C143.974129,20.3166667 144.856989,22.6055556 146.622709,24.35 C148.38843,26.0944444 150.629536,26.9666667 153.346029,26.9666667 Z M153.363008,23.7666667 C151.812343,23.7666667 150.516349,23.2166667 149.475027,22.1166667 C148.433705,21.0166667 147.913043,19.4722222 147.913043,17.4833333 C147.913043,15.4944444 148.445023,13.95 149.508983,12.85 C150.572943,11.75 151.885914,11.2 153.447898,11.2 C155.009881,11.2 156.339831,11.75 157.437747,12.85 C158.535663,13.95 159.084621,15.4888889 159.084621,17.4666667 C159.084621,19.4444444 158.518685,20.9888889 157.386813,22.1 C156.254941,23.2111111 154.913672,23.7666667 153.363008,23.7666667 Z M170.765541,26.6666667 L170.765541,17 C170.765541,15.1333333 171.156037,13.8222222 171.937028,13.0666667 C172.71802,12.3111111 173.86687,11.9333333 175.383579,11.9333333 L175.383579,11.9333333 L176.368308,11.9333333 L176.368308,8 C173.832914,8 171.965325,9.16666667 170.765541,11.5 L170.765541,11.5 L170.765541,8.3 L166.894538,8.3 L166.894538,26.6666667 L170.765541,26.6666667 Z M189,26.6666667 L189,23.5 L186.623069,23.5 C185.830758,23.5 185.270481,23.35 184.942239,23.05 C184.613996,22.75 184.449874,22.2555556 184.449874,21.5666667 L184.449874,21.5666667 L184.449874,11.4 L189,11.4 L189,8.3 L184.449874,8.3 L184.449874,3.73333333 L180.544916,3.73333333 L180.544916,8.3 L178.337765,8.3 L178.337765,11.4 L180.544916,11.4 L180.544916,21.5666667 C180.544916,24.9666667 182.344592,26.6666667 185.943945,26.6666667 L185.943945,26.6666667 L189,26.6666667 Z" id="hashfort" fill="#484845" fill-rule="nonzero"></path>
                <g id="Group">
                    <path d="M38.0309019,0.666666667 L38.0309019,27.3333333 L28.5231764,27.3333333 L28.5231764,18.6666667 L19.015451,18.6666667 L19.015451,9.33333333 L28.5231764,9.33333333 L28.5231764,0.666666667 L38.0309019,0.666666667 Z" id="Combined-Shape" fill="#4FAC68"></path>
                    <rect id="Rectangle" fill="#4FAC68" x="9.50772548" y="0" width="9.50772548" height="9.33333333"></rect>
                    <rect id="Rectangle" fill="#4FAC68" x="9.50772548" y="18.6666667" width="9.50772548" height="9.33333333"></rect>
                    <rect id="Rectangle" fill="#F8D849" x="0" y="9.33333333" width="9.50772548" height="9.33333333"></rect>
                </g>
            </g>
        </g>
    </g>
</svg>