<svg xmlns="http://www.w3.org/2000/svg" width="24" height="24" viewBox="0 0 24 24">
  <g id="notification-settings" transform="translate(2 2)">
    <path id="Path_6" data-name="Path 6" d="M-2-2H22V22H-2Z" fill="none" fill-rule="evenodd"/>
    <path id="Path_7" data-name="Path 7" d="M8,3a2,2,0,0,1,4,0,7,7,0,0,1,4,6v3a4,4,0,0,0,2,3H2a4,4,0,0,0,2-3V9A7,7,0,0,1,8,3M7,15v1a3,3,0,0,0,6,0V15M19,4.727A11.05,11.05,0,0,0,16.206,1M1,4.727A11.05,11.05,0,0,1,3.792,1" fill="none" stroke="#484845" stroke-linecap="round" stroke-linejoin="round" stroke-width="1.5" fill-rule="evenodd"/>
  </g>
</svg>
