<svg id="top_icon1" xmlns="http://www.w3.org/2000/svg" width="24" height="24" viewBox="0 0 24 24">
  <path id="Path" d="M0,0H24V24H0Z" fill="none"/>
  <path id="Path-2" data-name="Path" d="M6,2a2,2,0,0,1,4,0,7,7,0,0,1,4,6v3a4,4,0,0,0,2,3H0a4,4,0,0,0,2-3V8A7,7,0,0,1,6,2" transform="translate(4 3)" fill="none" stroke="#fff" stroke-linecap="round" stroke-linejoin="round" stroke-miterlimit="10" stroke-width="1.5"/>
  <path id="Path-3" data-name="Path" d="M0,0V1A3,3,0,0,0,6,1V0" transform="translate(9 17)" fill="none" stroke="#fff" stroke-linecap="round" stroke-linejoin="round" stroke-miterlimit="10" stroke-width="1.5"/>
  <path id="Path-4" data-name="Path" d="M2.794,3.727A11.05,11.05,0,0,0,0,0" transform="translate(18.206 3)" fill="none" stroke="#fff" stroke-linecap="round" stroke-linejoin="round" stroke-miterlimit="10" stroke-width="1.5"/>
  <path id="Path-5" data-name="Path" d="M0,3.727A11.05,11.05,0,0,1,2.792,0" transform="translate(3 3)" fill="none" stroke="#fff" stroke-linecap="round" stroke-linejoin="round" stroke-miterlimit="10" stroke-width="1.5"/>
</svg>
